<svg width="846" height="585" viewBox="0 0 846 585" fill="none" xmlns="http://www.w3.org/2000/svg">
<path d="M86.9147 0H85.7773V356.973H86.9147V0Z" fill="#721B1B"/>
<path d="M399.051 0H397.914V229.324H399.051V0Z" fill="#721B1B"/>
<path d="M748.798 0H747.66V356.973H748.798V0Z" fill="#721B1B"/>
<path d="M310.522 315.529C335.288 231.674 396.947 197.269 462.205 216.374C527.104 235.377 560.242 297.534 535.476 381.395C510.709 465.25 449.051 499.655 384.157 480.658C318.893 461.547 285.755 399.39 310.522 315.535V315.529ZM462.921 360.149C478.68 306.786 467.806 281.911 444.837 275.184C421.503 268.35 398.835 283.406 383.076 336.769C367.317 390.132 378.191 415.013 401.525 421.842C424.494 428.569 447.163 413.512 462.921 360.149Z" fill="#721B1B"/>
<path d="M253.52 486.49L216.833 501.133L235.782 548.194L167.703 575.374L148.754 528.313L18.2438 580.413L0 535.108L48.9535 337.415L121.263 308.547L78.5769 492.328L128.662 472.334L111.834 430.54L177.798 404.209L194.625 446.004L231.312 431.361L253.514 486.502L253.52 486.49Z" fill="#721B1B"/>
<path d="M827.49 549.004L789.916 536.795L774.118 585L704.39 562.345L720.188 514.14L586.516 470.703L601.723 424.299L766.685 303.961L840.746 328.026L689.564 441.7L740.866 458.37L754.896 415.562L822.457 437.516L808.427 480.324L846.001 492.532L827.49 549.009V549.004Z" fill="#721B1B"/>
</svg>
